<?xml version="1.0" standalone="no"?>
<!DOCTYPE svg PUBLIC "-//W3C//DTD SVG 20010904//EN"
 "http://www.w3.org/TR/2001/REC-SVG-20010904/DTD/svg10.dtd">
<svg version="1.0" xmlns="http://www.w3.org/2000/svg"
 width="50.000000pt" height="50.000000pt" viewBox="0 0 50.000000 50.000000"
 preserveAspectRatio="xMidYMid meet">

<g transform="translate(0.000000,50.000000) scale(0.100000,-0.100000)"
fill="#000000" stroke="none">
<path d="M330 473 c-14 -10 -32 -18 -40 -18 -8 0 -25 -19 -38 -43 -13 -23 -38
-50 -55 -58 -82 -42 -91 -79 -22 -90 38 -5 52 -14 82 -51 41 -50 98 -83 141
-83 35 0 102 67 102 102 0 34 -45 100 -94 138 -25 19 -45 38 -46 43 0 11 28 9
35 -3 11 -18 43 -11 51 12 5 17 0 27 -22 45 -35 27 -61 29 -94 6z m81 -22 c30
-24 18 -39 -14 -18 -16 10 -28 12 -40 5 -28 -15 -19 -41 29 -78 l44 -35 -39
-3 c-22 -2 -62 1 -90 6 -44 8 -55 6 -92 -14 -22 -13 -46 -24 -52 -24 -17 0 15
29 54 48 19 9 44 35 56 57 12 22 29 39 36 37 8 -1 22 7 32 18 23 25 46 25 76
1z"/>
<path d="M99 335 c-37 -20 -59 -72 -75 -182 -16 -106 -11 -123 36 -123 44 0
54 20 40 82 -12 59 2 175 27 216 15 25 9 27 -28 7z"/>
</g>
</svg>
