<?xml version="1.0" standalone="no"?>
<!DOCTYPE svg PUBLIC "-//W3C//DTD SVG 20010904//EN"
 "http://www.w3.org/TR/2001/REC-SVG-20010904/DTD/svg10.dtd">
<svg version="1.0" xmlns="http://www.w3.org/2000/svg"
 width="64.000000pt" height="64.000000pt" viewBox="0 0 64.000000 64.000000"
 preserveAspectRatio="xMidYMid meet">

<g transform="translate(0.000000,64.000000) scale(0.100000,-0.100000)"
fill="#000000" stroke="none">
<path d="M202 548 c-5 -7 -12 -22 -14 -33 -2 -11 -12 -21 -23 -23 -11 -2 -26
-9 -32 -14 -15 -12 -17 -78 -3 -78 6 0 10 14 10 31 0 24 6 32 29 40 19 7 33
21 40 40 8 23 16 29 40 29 17 0 31 5 31 10 0 14 -66 12 -78 -2z"/>
<path d="M300 511 c0 -5 9 -11 20 -14 28 -7 25 -24 -7 -39 -27 -13 -45 -58
-24 -58 6 0 11 7 11 14 0 8 12 21 27 28 31 15 41 42 23 63 -14 16 -50 20 -50
6z"/>
<path d="M240 481 c0 -10 -9 -21 -20 -24 -14 -3 -20 -14 -20 -31 0 -14 5 -26
10 -26 6 0 10 8 10 19 0 10 9 21 20 24 14 3 20 14 20 31 0 14 -4 26 -10 26 -5
0 -10 -8 -10 -19z"/>
<path d="M130 351 c-24 -7 -25 -10 -25 -86 0 -44 -4 -83 -10 -87 -5 -4 -23 -8
-40 -8 -16 0 -36 -4 -44 -9 -17 -11 -6 -48 20 -61 29 -16 263 -23 354 -12 44
6 84 7 90 2 5 -4 33 -8 61 -9 57 -1 104 26 104 59 0 22 -45 60 -70 60 -9 0
-25 9 -35 20 -26 28 -56 22 -80 -17 -20 -32 -38 -39 -69 -27 -24 9 -19 24 7
24 30 0 67 39 67 71 0 36 -36 64 -98 77 -58 13 -191 14 -232 3z m180 -21 c0
-6 -30 -10 -70 -10 -40 0 -70 4 -70 10 0 6 30 10 70 10 40 0 70 -4 70 -10z
m112 -27 c10 -9 18 -23 18 -31 0 -21 -30 -52 -49 -51 -10 0 -8 4 7 9 24 10 39
36 27 48 -3 4 -11 -1 -16 -11 -13 -23 -29 -22 -29 3 0 11 7 20 15 20 21 0 19
18 -2 23 -11 3 -13 5 -4 6 8 0 23 -6 33 -16z m-64 -56 c-6 -84 -27 -102 -118
-102 -91 0 -112 18 -118 102 l-4 58 122 0 122 0 -4 -58z m166 -46 c3 -5 -1
-11 -9 -15 -9 -3 -15 0 -15 9 0 16 16 20 24 6z m-42 -55 c4 -33 3 -36 -9 -20
-15 20 -16 34 -6 60 8 21 10 14 15 -40z m108 24 c12 -8 11 -10 -7 -10 -12 0
-25 -4 -28 -10 -8 -13 -45 -13 -45 0 0 23 54 37 80 20z m-455 -20 c3 -5 -1
-10 -9 -10 -9 0 -16 5 -16 10 0 6 4 10 9 10 6 0 13 -4 16 -10z m230 0 c-3 -5
-11 -10 -16 -10 -6 0 -7 5 -4 10 3 6 11 10 16 10 6 0 7 -4 4 -10z m75 -15 c0
-8 -4 -15 -10 -15 -5 0 -10 7 -10 15 0 8 5 15 10 15 6 0 10 -7 10 -15z m170
-5 c0 -20 -48 -34 -72 -22 l-23 11 22 0 c12 1 25 6 28 11 8 13 45 13 45 0z
m-287 -19 c-46 -3 -120 -3 -166 0 -59 4 -36 6 83 6 119 0 142 -2 83 -6z"/>
</g>
</svg>
