<?xml version="1.0" encoding="UTF-8"?>
<svg xmlns="http://www.w3.org/2000/svg" xmlns:xlink="http://www.w3.org/1999/xlink" width="120pt" height="120pt" viewBox="0 0 120 120" version="1.1">
<g id="surface1">
<path style=" stroke:none;fill-rule:nonzero;fill:rgb(0.784314%,64.313725%,21.568627%);fill-opacity:1;" d="M 25.457031 35.453125 C 21.839844 31.75 15.902344 31.679688 12.195312 35.300781 C 10.460938 36.996094 9.449219 39.300781 9.378906 41.726562 C 5.789062 43.796875 4.558594 48.382812 6.628906 51.972656 C 8.699219 55.558594 13.285156 56.789062 16.871094 54.722656 C 18.238281 53.933594 19.316406 52.738281 19.964844 51.300781 C 21.472656 51.101562 22.910156 50.542969 24.152344 49.664062 C 27.960938 51.292969 32.371094 49.527344 34 45.71875 C 35.628906 41.910156 33.859375 37.503906 30.050781 35.875 C 28.601562 35.253906 26.996094 35.105469 25.457031 35.453125 Z M 25.457031 35.453125 "/>
<path style=" stroke:none;fill-rule:nonzero;fill:rgb(0.784314%,49.411765%,16.470588%);fill-opacity:1;" d="M 22.160156 52.613281 C 21.386719 52.613281 20.691406 52.140625 20.410156 51.417969 L 17.003906 42.683594 C 16.625 41.722656 17.105469 40.632812 18.070312 40.257812 C 19.035156 39.878906 20.121094 40.355469 20.496094 41.324219 L 23.90625 50.058594 C 24.28125 51.019531 23.808594 52.105469 22.84375 52.484375 C 22.625 52.570312 22.390625 52.613281 22.160156 52.613281 Z M 22.160156 52.613281 "/>
<path style=" stroke:none;fill-rule:nonzero;fill:rgb(0.784314%,49.411765%,16.470588%);fill-opacity:1;" d="M 25.65625 51.25 C 25.597656 51.25 25.539062 51.246094 25.480469 51.238281 C 24.449219 51.144531 23.691406 50.230469 23.785156 49.199219 C 24.074219 46.089844 25.363281 43.152344 27.457031 40.832031 C 28.144531 40.058594 29.328125 39.988281 30.101562 40.675781 C 30.875 41.363281 30.945312 42.546875 30.257812 43.320312 C 30.253906 43.332031 30.246094 43.339844 30.238281 43.34375 C 28.691406 45.066406 27.734375 47.242188 27.519531 49.542969 C 27.429688 50.511719 26.621094 51.246094 25.65625 51.25 Z M 25.65625 51.25 "/>
<path style=" stroke:none;fill-rule:nonzero;fill:rgb(0.784314%,49.411765%,16.470588%);fill-opacity:1;" d="M 18.664062 53.976562 C 18.199219 53.976562 17.75 53.804688 17.410156 53.492188 C 15.6875 51.941406 13.511719 50.992188 11.207031 50.773438 C 10.175781 50.675781 9.417969 49.765625 9.511719 48.734375 C 9.605469 47.703125 10.519531 46.945312 11.550781 47.039062 C 14.664062 47.332031 17.597656 48.617188 19.921875 50.710938 C 20.691406 51.402344 20.75 52.589844 20.058594 53.359375 C 19.703125 53.75 19.195312 53.976562 18.664062 53.976562 Z M 18.664062 53.976562 "/>
<path style=" stroke:none;fill-rule:nonzero;fill:rgb(99.215686%,57.254902%,14.901961%);fill-opacity:1;" d="M 44.140625 86.4375 L 30.167969 91.894531 L 16.699219 64.894531 C 14.167969 59.816406 16.230469 53.648438 21.308594 51.113281 C 21.585938 50.976562 21.871094 50.851562 22.15625 50.738281 C 27.445312 48.675781 33.402344 51.285156 35.464844 56.574219 C 35.578125 56.863281 35.675781 57.160156 35.761719 57.457031 Z M 44.140625 86.4375 "/>
<path style=" stroke:none;fill-rule:nonzero;fill:rgb(0.784314%,41.568627%,13.72549%);fill-opacity:1;" d="M 63.75 5.625 L 71.25 5.625 L 71.25 58.125 L 63.75 58.125 Z M 63.75 5.625 "/>
<path style=" stroke:none;fill-rule:nonzero;fill:rgb(0.784314%,44.705882%,14.901961%);fill-opacity:1;" d="M 67.292969 43.578125 C 67.113281 42.449219 66.816406 41.347656 66.402344 40.285156 L 58.125 18.75 L 52.5 20.625 L 60.535156 41.507812 C 61.421875 43.816406 61.875 46.269531 61.875 48.746094 L 61.875 55.398438 Z M 67.292969 43.578125 "/>
<path style=" stroke:none;fill-rule:nonzero;fill:rgb(0.784314%,49.411765%,16.470588%);fill-opacity:1;" d="M 75.542969 76.347656 C 77.441406 78.882812 77.441406 82.367188 75.542969 84.902344 L 75.515625 84.9375 C 74.011719 86.945312 71.648438 88.125 69.140625 88.125 L 65.859375 88.125 C 63.351562 88.125 60.988281 86.945312 59.484375 84.9375 L 59.457031 84.902344 C 57.558594 82.367188 57.558594 78.882812 59.457031 76.347656 L 61.875 73.125 L 61.875 55.398438 L 67.292969 43.578125 L 67.5 43.125 L 76.875 18.75 L 82.5 20.625 L 74.464844 41.507812 C 73.578125 43.816406 73.125 46.269531 73.125 48.746094 L 73.125 73.125 Z M 75.542969 76.347656 "/>
<path style=" stroke:none;fill-rule:nonzero;fill:rgb(0.784314%,49.411765%,16.470588%);fill-opacity:1;" d="M 75.542969 84.902344 L 75.515625 84.9375 C 74.726562 85.988281 73.691406 86.832031 72.496094 87.378906 L 61.285156 86.679688 C 60.597656 86.199219 59.988281 85.613281 59.484375 84.9375 L 59.457031 84.902344 C 57.558594 82.367188 57.558594 78.882812 59.457031 76.347656 L 59.625 76.125 L 61.875 75 L 73.125 48.746094 L 73.125 73.125 L 75.542969 76.347656 C 77.441406 78.882812 77.441406 82.367188 75.542969 84.902344 Z M 75.542969 84.902344 "/>
<path style=" stroke:none;fill-rule:nonzero;fill:rgb(90.588235%,50.980392%,26.666667%);fill-opacity:1;" d="M 18.878906 69.996094 C 17.84375 69.996094 17.003906 69.160156 17 68.121094 C 17 67.347656 17.476562 66.652344 18.195312 66.371094 L 21.691406 65.011719 C 22.65625 64.632812 23.742188 65.109375 24.121094 66.074219 C 24.496094 67.035156 24.019531 68.128906 23.054688 68.503906 L 19.5625 69.863281 C 19.34375 69.953125 19.113281 69.996094 18.878906 69.996094 Z M 18.878906 69.996094 "/>
<path style=" stroke:none;fill-rule:nonzero;fill:rgb(90.588235%,50.980392%,26.666667%);fill-opacity:1;" d="M 29.359375 65.902344 C 28.324219 65.90625 27.484375 65.066406 27.484375 64.03125 C 27.480469 63.257812 27.957031 62.5625 28.675781 62.28125 L 32.171875 60.917969 C 33.136719 60.542969 34.222656 61.019531 34.597656 61.984375 C 34.972656 62.949219 34.496094 64.035156 33.535156 64.410156 L 30.042969 65.777344 C 29.824219 65.863281 29.59375 65.902344 29.359375 65.902344 Z M 29.359375 65.902344 "/>
<path style=" stroke:none;fill-rule:nonzero;fill:rgb(90.588235%,50.980392%,26.666667%);fill-opacity:1;" d="M 21.894531 76.808594 C 20.855469 76.8125 20.019531 75.972656 20.015625 74.9375 C 20.015625 74.164062 20.488281 73.46875 21.210938 73.191406 L 26.164062 71.316406 C 27.128906 70.9375 28.214844 71.414062 28.589844 72.378906 C 28.96875 73.34375 28.492188 74.433594 27.527344 74.808594 L 22.574219 76.683594 C 22.355469 76.765625 22.128906 76.808594 21.894531 76.808594 Z M 21.894531 76.808594 "/>
<path style=" stroke:none;fill-rule:nonzero;fill:rgb(90.588235%,50.980392%,26.666667%);fill-opacity:1;" d="M 33.832031 72.210938 C 32.796875 72.210938 31.957031 71.371094 31.953125 70.339844 C 31.953125 69.566406 32.429688 68.871094 33.148438 68.589844 L 34.898438 67.90625 C 35.863281 67.527344 36.949219 68.007812 37.328125 68.972656 C 37.703125 69.9375 37.222656 71.023438 36.261719 71.402344 L 34.515625 72.082031 C 34.296875 72.167969 34.066406 72.210938 33.832031 72.210938 Z M 33.832031 72.210938 "/>
<path style=" stroke:none;fill-rule:nonzero;fill:rgb(0.784314%,64.313725%,21.568627%);fill-opacity:1;" d="M 44.296875 46.875 L 48.746094 46.875 C 51.765625 46.875 54.523438 48.582031 55.875 51.28125 L 57.421875 54.375 L 52.972656 54.375 C 49.953125 54.375 47.195312 52.667969 45.84375 49.96875 Z M 44.296875 46.875 "/>
<path style=" stroke:none;fill-rule:nonzero;fill:rgb(56.078431%,41.176471%,20.392157%);fill-opacity:1;" d="M 53.351562 65.15625 C 52.316406 65.15625 51.476562 64.316406 51.476562 63.28125 C 51.488281 56.941406 55.964844 51.488281 62.175781 50.230469 L 62.359375 50.191406 C 63.375 49.988281 64.363281 50.648438 64.566406 51.664062 C 64.769531 52.679688 64.109375 53.667969 63.09375 53.867188 L 62.910156 53.90625 C 58.449219 54.808594 55.238281 58.730469 55.226562 63.28125 C 55.226562 64.316406 54.386719 65.15625 53.351562 65.15625 Z M 53.351562 65.15625 "/>
<path style=" stroke:none;fill-rule:nonzero;fill:rgb(79.607843%,79.607843%,79.607843%);fill-opacity:1;" d="M 75.542969 84.902344 L 75.515625 84.9375 C 74.726562 85.988281 73.691406 86.832031 72.496094 87.378906 L 61.285156 86.679688 C 60.597656 86.199219 59.988281 85.613281 59.484375 84.9375 L 59.457031 84.902344 C 57.558594 82.367188 57.558594 78.882812 59.457031 76.347656 L 59.625 76.125 L 61.875 75 L 73.125 48.746094 L 73.125 73.125 L 75.542969 76.347656 C 77.441406 78.882812 77.441406 82.367188 75.542969 84.902344 Z M 75.542969 84.902344 "/>
<path style=" stroke:none;fill-rule:nonzero;fill:rgb(90.980392%,18.431373%,24.313725%);fill-opacity:1;" d="M 46.636719 59.53125 C 48.488281 59.53125 50.21875 60.457031 51.246094 61.996094 C 52.023438 63.160156 53.59375 63.472656 54.753906 62.699219 C 55.035156 62.511719 55.269531 62.277344 55.457031 61.996094 C 56.484375 60.457031 58.214844 59.53125 60.066406 59.53125 C 61.746094 59.53125 63.335938 60.296875 64.386719 61.609375 L 64.828125 62.160156 C 68.0625 66.203125 68.390625 71.839844 65.648438 76.234375 L 61.988281 82.085938 C 61.28125 83.21875 60.042969 83.90625 58.707031 83.90625 C 57.675781 83.90625 56.691406 83.5 55.964844 82.773438 C 54.519531 81.328125 52.179688 81.328125 50.738281 82.773438 C 50.011719 83.5 49.027344 83.90625 47.996094 83.90625 C 46.660156 83.90625 45.421875 83.21875 44.714844 82.085938 L 41.058594 76.234375 C 38.316406 71.839844 38.640625 66.203125 41.875 62.160156 L 42.3125 61.609375 C 43.363281 60.296875 44.957031 59.53125 46.636719 59.53125 Z M 46.636719 59.53125 "/>
<path style=" stroke:none;fill-rule:nonzero;fill:rgb(100%,38.431373%,40.784314%);fill-opacity:1;" d="M 47.953125 75 C 47.457031 75 46.976562 74.804688 46.625 74.449219 C 44.933594 72.761719 44.511719 70.175781 45.585938 68.039062 L 46.273438 66.660156 C 46.746094 65.738281 47.875 65.371094 48.796875 65.839844 C 49.707031 66.308594 50.082031 67.417969 49.628906 68.339844 L 48.941406 69.71875 C 48.589844 70.410156 48.726562 71.25 49.277344 71.796875 C 50.011719 72.53125 50.011719 73.714844 49.28125 74.449219 C 48.929688 74.800781 48.449219 75 47.953125 75 Z M 47.953125 75 "/>
<path style=" stroke:none;fill-rule:nonzero;fill:rgb(91.764706%,61.568627%,17.647059%);fill-opacity:1;" d="M 5.625 91.875 L 114.375 91.875 L 114.375 103.125 L 5.625 103.125 Z M 5.625 91.875 "/>
<path style=" stroke:none;fill-rule:nonzero;fill:rgb(76.470588%,51.372549%,14.509804%);fill-opacity:1;" d="M 16.875 99.375 L 13.125 99.375 C 12.089844 99.375 11.25 98.535156 11.25 97.5 C 11.25 96.464844 12.089844 95.625 13.125 95.625 L 16.875 95.625 C 17.910156 95.625 18.75 96.464844 18.75 97.5 C 18.75 98.535156 17.910156 99.375 16.875 99.375 Z M 16.875 99.375 "/>
<path style=" stroke:none;fill-rule:nonzero;fill:rgb(76.470588%,51.372549%,14.509804%);fill-opacity:1;" d="M 106.875 99.375 L 103.125 99.375 C 102.089844 99.375 101.25 98.535156 101.25 97.5 C 101.25 96.464844 102.089844 95.625 103.125 95.625 L 106.875 95.625 C 107.910156 95.625 108.75 96.464844 108.75 97.5 C 108.75 98.535156 107.910156 99.375 106.875 99.375 Z M 106.875 99.375 "/>
<path style=" stroke:none;fill-rule:nonzero;fill:rgb(98.431373%,70.980392%,25.098039%);fill-opacity:1;" d="M 5.625 103.125 L 114.375 103.125 L 114.375 114.375 L 5.625 114.375 Z M 5.625 103.125 "/>
<path style=" stroke:none;fill-rule:nonzero;fill:rgb(76.470588%,51.372549%,14.509804%);fill-opacity:1;" d="M 16.875 110.625 L 13.125 110.625 C 12.089844 110.625 11.25 109.785156 11.25 108.75 C 11.25 107.714844 12.089844 106.875 13.125 106.875 L 16.875 106.875 C 17.910156 106.875 18.75 107.714844 18.75 108.75 C 18.75 109.785156 17.910156 110.625 16.875 110.625 Z M 16.875 110.625 "/>
<path style=" stroke:none;fill-rule:nonzero;fill:rgb(76.470588%,51.372549%,14.509804%);fill-opacity:1;" d="M 61.875 99.375 L 58.125 99.375 C 57.089844 99.375 56.25 98.535156 56.25 97.5 C 56.25 96.464844 57.089844 95.625 58.125 95.625 L 61.875 95.625 C 62.910156 95.625 63.75 96.464844 63.75 97.5 C 63.75 98.535156 62.910156 99.375 61.875 99.375 Z M 61.875 99.375 "/>
<path style=" stroke:none;fill-rule:nonzero;fill:rgb(76.470588%,51.372549%,14.509804%);fill-opacity:1;" d="M 61.875 110.625 L 58.125 110.625 C 57.089844 110.625 56.25 109.785156 56.25 108.75 C 56.25 107.714844 57.089844 106.875 58.125 106.875 L 61.875 106.875 C 62.910156 106.875 63.75 107.714844 63.75 108.75 C 63.75 109.785156 62.910156 110.625 61.875 110.625 Z M 61.875 110.625 "/>
<path style=" stroke:none;fill-rule:nonzero;fill:rgb(76.470588%,51.372549%,14.509804%);fill-opacity:1;" d="M 106.875 110.625 L 103.125 110.625 C 102.089844 110.625 101.25 109.785156 101.25 108.75 C 101.25 107.714844 102.089844 106.875 103.125 106.875 L 106.875 106.875 C 107.910156 106.875 108.75 107.714844 108.75 108.75 C 108.75 109.785156 107.910156 110.625 106.875 110.625 Z M 106.875 110.625 "/>
<path style=" stroke:none;fill-rule:nonzero;fill:rgb(0.784314%,49.411765%,16.470588%);fill-opacity:1;" d="M 82.5 69.375 L 84.144531 71.019531 C 86.695312 73.570312 88.125 77.023438 88.125 80.625 L 93.75 80.625 L 93.75 78.75 C 93.75 75.148438 92.320312 71.695312 89.769531 69.144531 L 88.125 67.5 Z M 82.5 69.375 "/>
<path style=" stroke:none;fill-rule:nonzero;fill:rgb(0.784314%,49.411765%,16.470588%);fill-opacity:1;" d="M 105 69.375 L 103.355469 71.019531 C 100.804688 73.570312 99.375 77.023438 99.375 80.625 L 93.75 80.625 L 93.75 78.75 C 93.75 75.148438 95.179688 71.695312 97.730469 69.144531 L 99.375 67.5 Z M 105 69.375 "/>
<path style=" stroke:none;fill-rule:nonzero;fill:rgb(0.784314%,64.313725%,21.568627%);fill-opacity:1;" d="M 114.375 54.84375 C 114.378906 52.753906 113.445312 50.773438 111.839844 49.4375 C 112.738281 45.660156 110.40625 41.871094 106.632812 40.972656 C 106.246094 40.882812 105.863281 40.824219 105.46875 40.800781 C 101.597656 34.066406 93.003906 31.753906 86.269531 35.621094 C 84.121094 36.863281 82.332031 38.644531 81.097656 40.800781 C 77.222656 41.054688 74.292969 44.402344 74.550781 48.277344 C 74.574219 48.667969 74.632812 49.058594 74.722656 49.4375 C 71.753906 51.910156 71.332031 56.308594 73.777344 59.296875 C 71.324219 63.855469 73.027344 69.542969 77.582031 71.996094 C 80.851562 73.761719 84.851562 73.425781 87.785156 71.148438 C 89.78125 70.886719 91.671875 70.117188 93.28125 68.90625 C 94.890625 70.117188 96.78125 70.890625 98.777344 71.152344 C 102.863281 74.324219 108.753906 73.589844 111.933594 69.5 C 114.214844 66.566406 114.542969 62.566406 112.785156 59.296875 C 113.8125 58.042969 114.378906 56.464844 114.375 54.84375 Z M 114.375 54.84375 "/>
<path style=" stroke:none;fill-rule:nonzero;fill:rgb(0.784314%,49.411765%,16.470588%);fill-opacity:1;" d="M 98.585938 46.875 C 97.789062 46.875 97.082031 46.375 96.816406 45.625 C 96.125 43.667969 93.980469 42.648438 92.027344 43.339844 C 90.960938 43.714844 90.121094 44.558594 89.746094 45.625 C 89.398438 46.597656 88.328125 47.113281 87.351562 46.765625 C 86.375 46.425781 85.863281 45.351562 86.207031 44.375 C 87.589844 40.46875 91.878906 38.421875 95.785156 39.804688 C 97.917969 40.558594 99.597656 42.238281 100.355469 44.375 C 100.699219 45.351562 100.1875 46.425781 99.210938 46.765625 C 99.011719 46.835938 98.796875 46.875 98.585938 46.875 Z M 98.585938 46.875 "/>
<path style=" stroke:none;fill-rule:nonzero;fill:rgb(0.784314%,49.411765%,16.470588%);fill-opacity:1;" d="M 83.90625 60 C 80.800781 60 78.28125 57.480469 78.28125 54.375 C 78.28125 51.269531 80.800781 48.75 83.90625 48.75 C 84.941406 48.75 85.78125 49.589844 85.78125 50.625 C 85.78125 51.660156 84.941406 52.5 83.90625 52.5 C 82.871094 52.5 82.03125 53.339844 82.03125 54.375 C 82.03125 55.410156 82.871094 56.25 83.90625 56.25 C 84.941406 56.25 85.78125 57.089844 85.78125 58.125 C 85.78125 59.160156 84.941406 60 83.90625 60 Z M 83.90625 60 "/>
<path style=" stroke:none;fill-rule:nonzero;fill:rgb(98.431373%,70.980392%,25.098039%);fill-opacity:1;" d="M 5.625 80.625 L 114.375 80.625 L 114.375 91.875 L 5.625 91.875 Z M 5.625 80.625 "/>
<path style=" stroke:none;fill-rule:nonzero;fill:rgb(76.470588%,51.372549%,14.509804%);fill-opacity:1;" d="M 16.875 88.125 L 13.125 88.125 C 12.089844 88.125 11.25 87.285156 11.25 86.25 C 11.25 85.214844 12.089844 84.375 13.125 84.375 L 16.875 84.375 C 17.910156 84.375 18.75 85.214844 18.75 86.25 C 18.75 87.285156 17.910156 88.125 16.875 88.125 Z M 16.875 88.125 "/>
<path style=" stroke:none;fill-rule:nonzero;fill:rgb(76.470588%,51.372549%,14.509804%);fill-opacity:1;" d="M 106.875 88.125 L 103.125 88.125 C 102.089844 88.125 101.25 87.285156 101.25 86.25 C 101.25 85.214844 102.089844 84.375 103.125 84.375 L 106.875 84.375 C 107.910156 84.375 108.75 85.214844 108.75 86.25 C 108.75 87.285156 107.910156 88.125 106.875 88.125 Z M 106.875 88.125 "/>
<path style=" stroke:none;fill-rule:nonzero;fill:rgb(76.470588%,51.372549%,14.509804%);fill-opacity:1;" d="M 61.875 88.125 L 58.125 88.125 C 57.089844 88.125 56.25 87.285156 56.25 86.25 C 56.25 85.214844 57.089844 84.375 58.125 84.375 L 61.875 84.375 C 62.910156 84.375 63.75 85.214844 63.75 86.25 C 63.75 87.285156 62.910156 88.125 61.875 88.125 Z M 61.875 88.125 "/>
<path style=" stroke:none;fill-rule:nonzero;fill:rgb(0%,0%,0%);fill-opacity:1;" d="M 13.125 99.375 L 16.875 99.375 C 17.910156 99.375 18.75 98.535156 18.75 97.5 C 18.75 96.464844 17.910156 95.625 16.875 95.625 L 13.125 95.625 C 12.089844 95.625 11.25 96.464844 11.25 97.5 C 11.25 98.535156 12.089844 99.375 13.125 99.375 Z M 13.125 99.375 "/>
<path style=" stroke:none;fill-rule:nonzero;fill:rgb(0%,0%,0%);fill-opacity:1;" d="M 103.125 99.375 L 106.875 99.375 C 107.910156 99.375 108.75 98.535156 108.75 97.5 C 108.75 96.464844 107.910156 95.625 106.875 95.625 L 103.125 95.625 C 102.089844 95.625 101.25 96.464844 101.25 97.5 C 101.25 98.535156 102.089844 99.375 103.125 99.375 Z M 103.125 99.375 "/>
<path style=" stroke:none;fill-rule:nonzero;fill:rgb(0%,0%,0%);fill-opacity:1;" d="M 13.125 110.625 L 16.875 110.625 C 17.910156 110.625 18.75 109.785156 18.75 108.75 C 18.75 107.714844 17.910156 106.875 16.875 106.875 L 13.125 106.875 C 12.089844 106.875 11.25 107.714844 11.25 108.75 C 11.25 109.785156 12.089844 110.625 13.125 110.625 Z M 13.125 110.625 "/>
<path style=" stroke:none;fill-rule:nonzero;fill:rgb(0%,0%,0%);fill-opacity:1;" d="M 58.125 99.375 L 61.875 99.375 C 62.910156 99.375 63.75 98.535156 63.75 97.5 C 63.75 96.464844 62.910156 95.625 61.875 95.625 L 58.125 95.625 C 57.089844 95.625 56.25 96.464844 56.25 97.5 C 56.25 98.535156 57.089844 99.375 58.125 99.375 Z M 58.125 99.375 "/>
<path style=" stroke:none;fill-rule:nonzero;fill:rgb(0%,0%,0%);fill-opacity:1;" d="M 58.125 110.625 L 61.875 110.625 C 62.910156 110.625 63.75 109.785156 63.75 108.75 C 63.75 107.714844 62.910156 106.875 61.875 106.875 L 58.125 106.875 C 57.089844 106.875 56.25 107.714844 56.25 108.75 C 56.25 109.785156 57.089844 110.625 58.125 110.625 Z M 58.125 110.625 "/>
<path style=" stroke:none;fill-rule:nonzero;fill:rgb(0%,0%,0%);fill-opacity:1;" d="M 103.125 110.625 L 106.875 110.625 C 107.910156 110.625 108.75 109.785156 108.75 108.75 C 108.75 107.714844 107.910156 106.875 106.875 106.875 L 103.125 106.875 C 102.089844 106.875 101.25 107.714844 101.25 108.75 C 101.25 109.785156 102.089844 110.625 103.125 110.625 Z M 103.125 110.625 "/>
<path style=" stroke:none;fill-rule:nonzero;fill:rgb(0%,0%,0%);fill-opacity:1;" d="M 34.597656 61.984375 C 34.222656 61.019531 33.136719 60.542969 32.171875 60.917969 L 28.675781 62.28125 C 27.710938 62.660156 27.234375 63.746094 27.613281 64.710938 C 27.988281 65.675781 29.074219 66.152344 30.042969 65.777344 L 33.535156 64.410156 C 34.496094 64.035156 34.972656 62.949219 34.597656 61.984375 Z M 34.597656 61.984375 "/>
<path style=" stroke:none;fill-rule:nonzero;fill:rgb(0%,0%,0%);fill-opacity:1;" d="M 113.855469 48.769531 C 114.355469 44.125 111.1875 39.882812 106.589844 39.050781 C 101.753906 31.699219 91.875 29.660156 84.523438 34.496094 C 82.714844 35.691406 81.164062 37.238281 79.972656 39.050781 C 78.917969 39.238281 77.90625 39.625 76.988281 40.175781 L 84.25 21.300781 C 84.621094 20.332031 84.140625 19.246094 83.175781 18.875 C 83.148438 18.863281 83.121094 18.855469 83.089844 18.847656 L 77.464844 16.972656 C 76.519531 16.652344 75.484375 17.140625 75.121094 18.074219 L 73.125 23.277344 L 73.125 5.625 C 73.125 4.589844 72.285156 3.75 71.25 3.75 L 63.75 3.75 C 62.714844 3.75 61.875 4.589844 61.875 5.625 L 61.875 23.277344 L 59.878906 18.074219 C 59.515625 17.140625 58.480469 16.652344 57.535156 16.972656 L 51.910156 18.847656 C 50.925781 19.175781 50.394531 20.234375 50.71875 21.214844 C 50.730469 21.246094 50.738281 21.273438 50.746094 21.300781 L 58.78125 42.183594 C 59.589844 44.273438 60.003906 46.5 60 48.746094 L 60 50.863281 C 59.375 51.097656 58.769531 51.386719 58.191406 51.71875 L 57.550781 50.441406 C 55.894531 47.097656 52.480469 44.988281 48.746094 45 L 44.296875 45 C 43.261719 45 42.421875 45.839844 42.421875 46.875 C 42.421875 47.164062 42.488281 47.457031 42.617188 47.714844 L 44.167969 50.808594 C 45.824219 54.152344 49.238281 56.261719 52.972656 56.25 L 53.480469 56.25 C 52.78125 57.371094 52.257812 58.589844 51.917969 59.867188 C 49.050781 56.949219 44.355469 56.914062 41.4375 59.785156 C 41.230469 59.992188 41.035156 60.207031 40.847656 60.4375 L 40.410156 60.988281 C 39.976562 61.53125 39.582031 62.105469 39.234375 62.707031 L 37.566406 56.933594 C 36.773438 54.21875 35.066406 51.863281 32.730469 50.269531 C 36.09375 47.742188 37.363281 43.285156 35.832031 39.363281 C 34.273438 35.421875 30.277344 33.003906 26.0625 33.449219 C 21.339844 29.414062 14.234375 29.972656 10.199219 34.695312 C 8.753906 36.382812 7.84375 38.460938 7.578125 40.667969 C 4.175781 43.191406 2.875 47.675781 4.394531 51.632812 C 5.910156 55.5625 9.875 57.988281 14.066406 57.554688 C 13.425781 60.308594 13.761719 63.199219 15.023438 65.730469 L 21.519531 78.75 L 5.625 78.75 C 4.589844 78.75 3.75 79.589844 3.75 80.625 L 3.75 114.375 C 3.75 115.410156 4.589844 116.25 5.625 116.25 L 114.375 116.25 C 115.410156 116.25 116.25 115.410156 116.25 114.375 L 116.25 80.625 C 116.25 79.589844 115.410156 78.75 114.375 78.75 L 102.632812 78.75 C 102.847656 77.429688 103.285156 76.152344 103.929688 74.980469 C 104.128906 74.992188 104.328125 75 104.53125 75 C 110.746094 74.996094 115.78125 69.957031 115.78125 63.746094 C 115.78125 62.285156 115.496094 60.839844 114.941406 59.484375 C 117.027344 56.074219 116.582031 51.6875 113.855469 48.769531 Z M 93.425781 75.613281 C 93.15625 74.292969 92.707031 73.007812 92.097656 71.800781 C 92.503906 71.605469 92.898438 71.394531 93.28125 71.164062 C 93.742188 71.441406 94.214844 71.691406 94.707031 71.910156 C 94.121094 73.085938 93.695312 74.332031 93.425781 75.613281 Z M 88.472656 72.972656 C 89.476562 74.730469 90.003906 76.722656 90 78.75 L 88.011719 78.75 C 87.808594 77.109375 87.347656 75.511719 86.636719 74.019531 C 87.28125 73.730469 87.894531 73.378906 88.472656 72.972656 Z M 82.917969 74.964844 C 83.566406 76.144531 84.007812 77.421875 84.222656 78.75 L 78.640625 78.75 C 78.371094 77.472656 77.824219 76.269531 77.042969 75.222656 L 75.042969 72.554688 C 77.027344 74.136719 79.492188 75.003906 82.03125 75 C 82.328125 75 82.621094 74.988281 82.917969 74.964844 Z M 67.238281 77.226562 C 69.605469 73.425781 70.027344 68.722656 68.371094 64.5625 L 70.964844 58.171875 C 71.148438 58.625 71.367188 59.066406 71.621094 59.484375 C 70.644531 61.859375 70.519531 64.496094 71.25 66.957031 L 71.25 73.125 C 71.25 73.527344 71.382812 73.925781 71.625 74.25 L 74.042969 77.472656 C 74.335938 77.863281 74.574219 78.292969 74.746094 78.75 L 66.285156 78.75 Z M 77.980469 21.097656 L 80.042969 21.78125 L 72.71875 40.832031 C 71.910156 42.933594 71.433594 45.136719 71.296875 47.378906 L 65.949219 60.558594 L 65.855469 60.4375 C 65.269531 59.710938 64.558594 59.097656 63.75 58.636719 L 63.75 55.804688 Z M 65.625 32.8125 L 65.625 7.5 L 69.375 7.5 L 69.375 32.300781 C 69.375 32.480469 69.402344 32.65625 69.449219 32.832031 L 67.5 37.902344 L 65.617188 33.003906 C 65.621094 32.941406 65.625 32.878906 65.625 32.8125 Z M 54.957031 21.78125 L 57.019531 21.097656 L 64.65625 40.957031 C 64.949219 41.730469 65.179688 42.523438 65.339844 43.335938 L 63.675781 46.96875 C 63.507812 44.867188 63.039062 42.800781 62.28125 40.832031 Z M 60 55.398438 L 60 57.660156 C 58.753906 57.667969 57.535156 57.992188 56.445312 58.597656 C 57.285156 57.105469 58.511719 55.859375 60 55.003906 Z M 47.523438 49.128906 L 47.332031 48.75 L 48.746094 48.75 C 51.054688 48.742188 53.171875 50.046875 54.195312 52.121094 L 54.386719 52.5 L 52.972656 52.5 C 50.660156 52.507812 48.546875 51.203125 47.523438 49.128906 Z M 43.335938 63.332031 L 43.777344 62.78125 C 45.042969 61.199219 47.347656 60.945312 48.925781 62.207031 C 49.21875 62.441406 49.472656 62.722656 49.683594 63.039062 C 51.035156 65.0625 53.769531 65.609375 55.796875 64.261719 C 56.277344 63.9375 56.695312 63.519531 57.019531 63.039062 C 57.941406 61.648438 59.6875 61.0625 61.261719 61.609375 C 61.273438 61.613281 61.285156 61.617188 61.296875 61.621094 C 61.9375 61.847656 62.5 62.25 62.925781 62.78125 L 63.363281 63.332031 C 66.097656 66.753906 66.371094 71.527344 64.058594 75.238281 L 61.863281 78.75 L 44.839844 78.75 L 42.644531 75.238281 C 40.328125 71.527344 40.605469 66.753906 43.335938 63.332031 Z M 37.351562 69.050781 C 37.347656 69.039062 37.34375 69.027344 37.339844 69.011719 L 37.355469 69.027344 C 37.355469 69.035156 37.355469 69.042969 37.351562 69.050781 Z M 7.886719 50.269531 C 6.890625 47.679688 7.917969 44.75 10.3125 43.355469 C 10.875 43.027344 11.230469 42.433594 11.253906 41.785156 C 11.371094 37.640625 14.828125 34.382812 18.96875 34.503906 C 20.910156 34.5625 22.761719 35.371094 24.121094 36.761719 C 24.574219 37.226562 25.238281 37.425781 25.871094 37.28125 C 28.582031 36.6875 31.320312 38.148438 32.339844 40.726562 C 33.476562 43.605469 32.058594 46.863281 29.179688 47.996094 C 28.769531 48.160156 28.339844 48.273438 27.90625 48.332031 C 27.839844 48.324219 27.777344 48.308594 27.707031 48.300781 C 28.105469 46.457031 28.976562 44.746094 30.238281 43.347656 C 30.941406 42.582031 30.890625 41.398438 30.125 40.695312 C 29.363281 39.996094 28.175781 40.046875 27.476562 40.808594 C 27.472656 40.816406 27.464844 40.824219 27.457031 40.832031 C 25.6875 42.796875 24.488281 45.207031 23.988281 47.800781 C 23.6875 47.828125 23.394531 47.925781 23.136719 48.09375 L 20.496094 41.324219 C 20.121094 40.355469 19.035156 39.878906 18.070312 40.257812 C 17.105469 40.632812 16.625 41.722656 17.003906 42.683594 L 19.644531 49.457031 C 19.347656 49.503906 19.0625 49.632812 18.824219 49.8125 C 16.695312 48.246094 14.183594 47.289062 11.550781 47.039062 C 10.519531 46.945312 9.605469 47.703125 9.511719 48.734375 C 9.417969 49.765625 10.175781 50.675781 11.207031 50.773438 C 13.085938 50.949219 14.882812 51.613281 16.425781 52.707031 C 16.382812 52.753906 16.339844 52.808594 16.300781 52.863281 C 13.753906 54.621094 10.261719 53.980469 8.503906 51.429688 C 8.253906 51.070312 8.046875 50.679688 7.886719 50.269531 Z M 24.355469 76.046875 L 27.527344 74.808594 C 28.496094 74.433594 28.972656 73.351562 28.601562 72.382812 C 28.226562 71.417969 27.144531 70.9375 26.175781 71.308594 C 26.171875 71.3125 26.167969 71.316406 26.164062 71.316406 L 22.679688 72.675781 L 20.996094 69.304688 L 23.054688 68.503906 C 24.019531 68.128906 24.496094 67.035156 24.121094 66.074219 C 23.742188 65.109375 22.65625 64.632812 21.691406 65.011719 L 19.316406 65.933594 L 18.378906 64.058594 C 17.3125 61.949219 17.199219 59.488281 18.054688 57.285156 C 20.113281 52.425781 26.136719 51.390625 29.613281 52.777344 C 31.734375 53.8125 33.316406 55.703125 33.960938 57.976562 L 36.945312 68.296875 C 36.957031 68.339844 36.972656 68.378906 36.988281 68.417969 C 36.464844 67.824219 35.628906 67.621094 34.894531 67.90625 L 33.148438 68.585938 C 32.183594 68.964844 31.707031 70.050781 32.085938 71.015625 C 32.460938 71.980469 33.546875 72.457031 34.511719 72.082031 L 36.261719 71.398438 C 36.765625 71.203125 37.160156 70.796875 37.339844 70.285156 C 37.425781 72.746094 38.160156 75.136719 39.464844 77.226562 L 40.417969 78.75 L 25.707031 78.75 Z M 112.5 101.25 L 7.5 101.25 L 7.5 93.75 L 112.5 93.75 Z M 112.5 112.5 L 7.5 112.5 L 7.5 105 L 112.5 105 Z M 112.5 90 L 7.5 90 L 7.5 82.5 L 112.5 82.5 Z M 98.84375 78.75 L 96.855469 78.75 C 96.855469 76.777344 97.355469 74.839844 98.300781 73.117188 C 98.890625 73.511719 99.519531 73.847656 100.171875 74.125 C 99.488281 75.585938 99.042969 77.148438 98.84375 78.75 Z M 111.332031 58.105469 C 110.851562 58.695312 110.769531 59.519531 111.136719 60.191406 C 113.097656 63.839844 111.734375 68.386719 108.089844 70.355469 C 106.996094 70.941406 105.773438 71.25 104.53125 71.25 C 102.863281 71.253906 101.242188 70.699219 99.929688 69.671875 C 99.664062 69.464844 99.351562 69.332031 99.019531 69.289062 C 97.347656 69.070312 95.757812 68.417969 94.40625 67.40625 C 93.742188 66.90625 92.820312 66.90625 92.15625 67.40625 C 90.804688 68.417969 89.214844 69.070312 87.542969 69.289062 C 87.210938 69.332031 86.898438 69.464844 86.632812 69.671875 C 85.316406 70.699219 83.699219 71.253906 82.03125 71.25 C 77.886719 71.25 74.53125 67.890625 74.53125 63.746094 C 74.53125 62.503906 74.839844 61.285156 75.425781 60.191406 C 75.792969 59.519531 75.710938 58.695312 75.230469 58.105469 C 73.863281 56.441406 73.679688 54.097656 74.769531 52.238281 L 74.773438 52.230469 C 75.074219 51.71875 75.464844 51.261719 75.921875 50.878906 C 76.472656 50.425781 76.710938 49.699219 76.546875 49.007812 C 75.886719 46.238281 77.597656 43.457031 80.363281 42.800781 C 80.644531 42.730469 80.929688 42.6875 81.21875 42.667969 C 81.84375 42.628906 82.40625 42.277344 82.71875 41.738281 C 86.074219 35.902344 93.519531 33.894531 99.355469 37.246094 C 101.222656 38.320312 102.769531 39.867188 103.847656 41.738281 C 104.15625 42.277344 104.722656 42.628906 105.347656 42.667969 C 108.183594 42.859375 110.335938 45.3125 110.148438 48.152344 C 110.128906 48.441406 110.082031 48.726562 110.015625 49.003906 C 109.851562 49.699219 110.09375 50.425781 110.644531 50.878906 C 111.820312 51.859375 112.503906 53.3125 112.5 54.84375 C 112.503906 56.035156 112.09375 57.191406 111.332031 58.105469 Z M 111.332031 58.105469 "/>
<path style=" stroke:none;fill-rule:nonzero;fill:rgb(0%,0%,0%);fill-opacity:1;" d="M 93.28125 39.375 C 90.101562 39.378906 87.273438 41.378906 86.207031 44.375 C 85.863281 45.351562 86.375 46.425781 87.351562 46.765625 C 88.328125 47.113281 89.398438 46.601562 89.746094 45.625 C 90.4375 43.671875 92.582031 42.652344 94.535156 43.339844 C 95.601562 43.714844 96.441406 44.558594 96.816406 45.625 C 97.164062 46.601562 98.234375 47.113281 99.210938 46.765625 C 100.1875 46.425781 100.699219 45.351562 100.355469 44.375 C 99.289062 41.378906 96.460938 39.378906 93.28125 39.375 Z M 93.28125 39.375 "/>
<path style=" stroke:none;fill-rule:nonzero;fill:rgb(0%,0%,0%);fill-opacity:1;" d="M 83.90625 52.5 C 84.941406 52.5 85.78125 51.660156 85.78125 50.625 C 85.78125 49.589844 84.941406 48.75 83.90625 48.75 C 80.800781 48.75 78.28125 51.269531 78.28125 54.375 C 78.28125 57.480469 80.800781 60 83.90625 60 C 84.941406 60 85.78125 59.160156 85.78125 58.125 C 85.78125 57.089844 84.941406 56.25 83.90625 56.25 C 82.871094 56.25 82.03125 55.410156 82.03125 54.375 C 82.03125 53.339844 82.871094 52.5 83.90625 52.5 Z M 83.90625 52.5 "/>
<path style=" stroke:none;fill-rule:nonzero;fill:rgb(0%,0%,0%);fill-opacity:1;" d="M 16.875 84.375 L 13.125 84.375 C 12.089844 84.375 11.25 85.214844 11.25 86.25 C 11.25 87.285156 12.089844 88.125 13.125 88.125 L 16.875 88.125 C 17.910156 88.125 18.75 87.285156 18.75 86.25 C 18.75 85.214844 17.910156 84.375 16.875 84.375 Z M 16.875 84.375 "/>
<path style=" stroke:none;fill-rule:nonzero;fill:rgb(0%,0%,0%);fill-opacity:1;" d="M 103.125 88.125 L 106.875 88.125 C 107.910156 88.125 108.75 87.285156 108.75 86.25 C 108.75 85.214844 107.910156 84.375 106.875 84.375 L 103.125 84.375 C 102.089844 84.375 101.25 85.214844 101.25 86.25 C 101.25 87.285156 102.089844 88.125 103.125 88.125 Z M 103.125 88.125 "/>
<path style=" stroke:none;fill-rule:nonzero;fill:rgb(0%,0%,0%);fill-opacity:1;" d="M 61.875 84.375 L 58.125 84.375 C 57.089844 84.375 56.25 85.214844 56.25 86.25 C 56.25 87.285156 57.089844 88.125 58.125 88.125 L 61.875 88.125 C 62.910156 88.125 63.75 87.285156 63.75 86.25 C 63.75 85.214844 62.910156 84.375 61.875 84.375 Z M 61.875 84.375 "/>
<path style=" stroke:none;fill-rule:nonzero;fill:rgb(0%,0%,0%);fill-opacity:1;" d="M 47.953125 75 C 48.988281 75 49.828125 74.160156 49.828125 73.125 C 49.828125 72.628906 49.632812 72.152344 49.28125 71.800781 C 48.730469 71.25 48.589844 70.410156 48.941406 69.71875 L 49.628906 68.339844 C 50.085938 67.410156 49.703125 66.285156 48.769531 65.832031 C 47.855469 65.378906 46.738281 65.746094 46.277344 66.660156 L 45.585938 68.039062 C 44.511719 70.175781 44.933594 72.761719 46.625 74.449219 C 46.976562 74.800781 47.457031 75 47.953125 75 Z M 47.953125 75 "/>
</g>
</svg>
