<?xml version="1.0" standalone="no"?>
<!DOCTYPE svg PUBLIC "-//W3C//DTD SVG 20010904//EN"
 "http://www.w3.org/TR/2001/REC-SVG-20010904/DTD/svg10.dtd">
<svg version="1.0" xmlns="http://www.w3.org/2000/svg"
 width="64.000000pt" height="64.000000pt" viewBox="0 0 64.000000 64.000000"
 preserveAspectRatio="xMidYMid meet">

<g transform="translate(0.000000,64.000000) scale(0.100000,-0.100000)"
fill="#000000" stroke="none">
<path d="M130 581 c0 -16 -6 -31 -15 -35 -21 -7 -19 -43 3 -55 16 -9 16 -10 0
-16 -23 -9 -23 -51 0 -60 16 -6 16 -7 0 -16 -10 -6 -18 -19 -18 -29 0 -10 8
-23 18 -29 16 -9 16 -10 0 -16 -23 -9 -23 -51 0 -60 16 -6 16 -7 0 -16 -23
-13 -23 -45 0 -58 16 -9 16 -10 -1 -16 -21 -8 -23 -51 -3 -58 8 -3 16 -18 18
-34 l3 -28 202 -3 203 -2 5 22 c3 13 4 138 3 278 l-3 255 -207 3 -208 2 0 -29z
m390 -11 c0 -17 -7 -20 -45 -20 -25 0 -45 -4 -45 -10 0 -5 20 -10 45 -10 l45
0 0 -225 0 -225 -180 0 c-147 0 -180 3 -180 14 0 8 11 17 25 20 28 7 36 50 10
59 -19 8 -31 -13 -14 -24 11 -7 10 -9 -3 -9 -28 0 -24 48 5 52 28 4 32 51 4
56 -15 3 -18 0 -12 -17 4 -12 2 -21 -4 -21 -6 0 -11 11 -11 24 0 17 7 26 25
30 28 7 36 50 10 59 -19 8 -31 -13 -14 -24 11 -7 10 -9 -3 -9 -28 0 -24 48 5
52 28 4 32 51 4 56 -15 3 -18 0 -12 -17 4 -12 2 -21 -4 -21 -6 0 -11 11 -11
24 0 17 7 26 25 30 28 7 36 50 10 59 -19 8 -31 -13 -14 -24 11 -7 10 -9 -3 -9
-28 0 -24 48 5 52 28 4 32 51 4 56 -15 3 -18 0 -12 -17 4 -12 2 -21 -4 -21 -6
0 -11 18 -11 40 l0 40 180 0 c173 0 180 -1 180 -20z"/>
<path d="M294 532 c-51 -41 -54 -97 -6 -109 15 -3 38 -14 51 -25 29 -22 94
-24 111 -3 19 23 -3 64 -40 78 -17 7 -30 19 -30 28 0 50 -44 66 -86 31z"/>
<path d="M400 540 c0 -5 5 -10 10 -10 6 0 10 5 10 10 0 6 -4 10 -10 10 -5 0
-10 -4 -10 -10z"/>
<path d="M250 315 c0 -13 12 -15 78 -13 43 2 77 7 77 13 0 6 -34 11 -77 13
-66 2 -78 0 -78 -13z"/>
<path d="M427 324 c-14 -14 -6 -24 19 -24 16 0 24 5 22 13 -5 14 -31 21 -41
11z"/>
<path d="M250 275 c0 -13 12 -15 78 -13 43 2 77 7 77 13 0 6 -34 11 -77 13
-66 2 -78 0 -78 -13z"/>
<path d="M423 278 c2 -7 12 -13 22 -13 10 0 20 6 23 13 2 7 -6 12 -23 12 -17
0 -25 -5 -22 -12z"/>
<path d="M250 240 c0 -6 33 -10 80 -10 47 0 80 4 80 10 0 6 -33 10 -80 10 -47
0 -80 -4 -80 -10z"/>
<path d="M420 240 c0 -5 11 -10 25 -10 14 0 25 5 25 10 0 6 -11 10 -25 10 -14
0 -25 -4 -25 -10z"/>
<path d="M230 191 c0 -5 7 -14 15 -21 14 -12 14 -15 0 -30 -8 -9 -12 -20 -8
-23 3 -4 62 -7 130 -7 126 0 142 6 111 39 -10 11 -10 14 0 18 6 3 12 11 12 19
0 11 -25 14 -130 14 -71 0 -130 -4 -130 -9z"/>
<path d="M50 590 c0 -5 5 -10 10 -10 6 0 10 5 10 10 0 6 -4 10 -10 10 -5 0
-10 -4 -10 -10z"/>
<path d="M560 590 c0 -5 5 -10 10 -10 6 0 10 5 10 10 0 6 -4 10 -10 10 -5 0
-10 -4 -10 -10z"/>
<path d="M567 503 c-13 -12 -7 -41 10 -47 21 -8 48 17 40 38 -6 16 -38 22 -50
9z"/>
<path d="M41 427 c-17 -21 -3 -49 23 -45 15 2 21 10 21 28 0 28 -26 38 -44 17z"/>
<path d="M560 360 c0 -5 5 -10 10 -10 6 0 10 5 10 10 0 6 -4 10 -10 10 -5 0
-10 -4 -10 -10z"/>
<path d="M50 290 c0 -5 5 -10 10 -10 6 0 10 5 10 10 0 6 -4 10 -10 10 -5 0
-10 -4 -10 -10z"/>
<path d="M570 150 c0 -5 5 -10 10 -10 6 0 10 5 10 10 0 6 -4 10 -10 10 -5 0
-10 -4 -10 -10z"/>
<path d="M32 98 c-27 -27 -6 -68 35 -68 29 0 48 33 33 60 -12 22 -49 27 -68 8z
m48 -29 c0 -5 -7 -9 -15 -9 -15 0 -20 12 -9 23 8 8 24 -1 24 -14z"/>
</g>
</svg>
