<?xml version="1.0" standalone="no"?>
<!DOCTYPE svg PUBLIC "-//W3C//DTD SVG 20010904//EN"
 "http://www.w3.org/TR/2001/REC-SVG-20010904/DTD/svg10.dtd">
<svg version="1.0" xmlns="http://www.w3.org/2000/svg"
 width="64.000000pt" height="64.000000pt" viewBox="0 0 64.000000 64.000000"
 preserveAspectRatio="xMidYMid meet">

<g transform="translate(0.000000,64.000000) scale(0.100000,-0.100000)"
fill="#000000" stroke="none">
<path d="M190 590 c0 -5 5 -10 10 -10 6 0 10 5 10 10 0 6 -4 10 -10 10 -5 0
-10 -4 -10 -10z"/>
<path d="M256 569 c-77 -61 21 -183 158 -195 58 -6 93 9 115 47 12 22 12 29
-3 61 -42 88 -202 140 -270 87z"/>
<path d="M85 545 c-14 -13 -25 -31 -25 -40 0 -21 44 -65 65 -65 21 0 65 44 65
65 0 21 -44 65 -65 65 -9 0 -27 -11 -40 -25z"/>
<path d="M540 555 c0 -8 5 -15 10 -15 6 0 10 7 10 15 0 8 -4 15 -10 15 -5 0
-10 -7 -10 -15z"/>
<path d="M198 409 c-74 -20 -140 -113 -141 -200 -2 -134 140 -116 212 28 51
101 12 195 -71 172z"/>
<path d="M60 390 c0 -5 4 -10 9 -10 6 0 13 5 16 10 3 6 -1 10 -9 10 -9 0 -16
-4 -16 -10z"/>
<path d="M372 343 c-45 -18 -56 -139 -18 -218 26 -57 41 -72 85 -85 87 -25
128 121 66 240 -28 55 -86 82 -133 63z"/>
<path d="M525 340 c3 -5 10 -10 16 -10 5 0 9 5 9 10 0 6 -7 10 -16 10 -8 0
-12 -4 -9 -10z"/>
<path d="M565 170 c-3 -5 1 -10 10 -10 9 0 13 5 10 10 -3 6 -8 10 -10 10 -2 0
-7 -4 -10 -10z"/>
<path d="M235 116 c-13 -19 -14 -29 -6 -45 25 -45 91 -33 91 17 0 54 -56 72
-85 28z"/>
<path d="M130 80 c0 -5 5 -10 10 -10 6 0 10 5 10 10 0 6 -4 10 -10 10 -5 0
-10 -4 -10 -10z"/>
</g>
</svg>
