<svg height="512" viewBox="0 0 60 60" width="512" xmlns="http://www.w3.org/2000/svg"><g id="Page-1" fill="none" fill-rule="evenodd"><g id="024---Vitamines" fill-rule="nonzero" transform="translate(-1)"><path id="Shape" d="m49 22.16.0000157 2.84h-36.0000157v-2.84c.0011579-1.8875856 1.2093349-3.5629244 3-4.16.8732847-.2924563 1.6324471-.8522074 2.17-1.6.5417459-.7434164.8324791-1.6401356.83-2.56v-2.84h24v2.84c.0011579 1.8875856 1.2093349 3.5629244 3 4.16.8732847.2924563 1.6324471.8522074 2.17 1.6.5417459.7434164.8324791 1.6401356.83 2.56z" fill="#02a9f4"/><path id="Shape" d="m48.17 19.6c-.5375529-.7477926-1.2967153-1.3075437-2.17-1.6-1.7906651-.5970756-2.9988421-2.2724144-3-4.16v-2.84h-3v2.84c.0011579 1.8875856 1.2093349 3.5629244 3 4.16.8732847.2924563 1.6324471.8522074 2.17 1.6.5417459.7434164.8324791 1.6401356.83 2.56v2.84h3.0000157l-.0000157-2.84c.0024791-.9198644-.2882541-1.8165836-.83-2.56z" fill="#0377bc"/><path id="Shape" d="m47.83 57.83c-.7523311.7476392-1.7693573 1.1681058-2.83 1.17h-28c-.5075875.0014296-1.0104883-.0971118-1.48-.29 3.8894791-.9118596 6.9764768-3.8648065 8.06-7.71h20.42c-.0009647 2.788584 1.4502109 5.3764507 3.83 6.83z" fill="#02a9f4"/><path id="Shape" d="m44 51h-3.0000005c-.0009642 2.788584 1.4502114 5.3764507 3.8300005 6.83-.7523311.7476392-1.7693573 1.1681058-2.83 1.17h3c1.0606427-.0018942 2.0776689-.4223608 2.83-1.17-2.3797891-1.4535493-3.8309647-4.041416-3.83-6.83z" fill="#0377bc"/><rect id="Rectangle-path" fill="#f5f5f5" height="10" rx="2" width="28" x="17" y="1"/><path id="Shape" d="m43 1h-3c1.1032019.0032948 1.9967052.89679813 2 2v6c-.0032948 1.1032019-.8967981 1.9967052-2 2h3c1.1032019-.0032948 1.9967052-.8967981 2-2v-6c-.0032948-1.10320187-.8967981-1.9967052-2-2z" fill="#cfd8dc"/><path id="Shape" d="m24 48c.0042241 1.0149422-.1372175 2.0252388-.42 3-1.0835232 3.8451935-4.1705209 6.7981404-8.06 7.71h-.01c-3.7058822.8679685-7.59720637-.2400568-10.29-2.93l15.56-15.56c2.0659504 2.0614595 3.2248289 4.8614827 3.22 7.78z" fill="#bb193b"/><path id="Shape" d="m20.78 40.22-15.56 15.56c-4.2967752-4.2967754-4.29677513-11.2632245.00000016-15.5599998s11.26322444-4.2967754 15.55999984-.0000002z" fill="#ef314c"/><path id="Shape" d="m60 45v6c0 4.418278-3.581722 8-8 8s-8-3.581722-8-8v-6z" fill="#ffdc00"/><path id="Shape" d="m49 25v6.58c-3.0218369 1.2247625-4.9993525 4.1593956-5 7.42v12h-20.42c.2827825-.9747612.4242241-1.9850578.42-3 .0047138-2.9155578-1.1543506-5.7124305-3.22-7.77v-.01c-2.0614595-2.0659504-4.8614827-3.2248289-7.78-3.22v-12z" fill="#60a917"/><path id="Shape" d="m46 25v6.58c-3.0218369 1.2247625-4.9993525 4.1593956-5 7.42v12h3v-12c.0006475-3.2606044 1.9781631-6.1952375 5-7.42v-6.58z" fill="#549414"/><path id="Shape" d="m60 39 .0000009 6h-16.0000009v-6c.0006475-3.2606044 1.9781631-6.1952375 5-7.42 2.4666024-.9977901 5.2678696-.7039302 7.4737125.7840111s3.527552 3.9752163 3.5262875 6.6359889z" fill="#02a9f4"/><path id="Shape" d="m57.66 33.34c-1.8752882-1.8775527-4.5602248-2.7018424-7.166-2.2 3.7802477.7084321 6.5163482 4.0139577 6.506 7.86v6h3v-6c.0001329-2.1220657-.8413942-4.1575542-2.34-5.66z" fill="#0377bc"/><g fill="#f5f5f5"><path id="Shape" d="m31 47c-1.0022953-.0003989-1.9184653-.5666671-2.367-1.463l-6.353-12.7c-.6539051-1.3075341-.1240341-2.8975949 1.1835-3.5515s2.8975949-.1240341 3.5515 1.1835l3.985 7.965 3.985-7.97c.4230025-.8458263 1.2651158-1.4017329 2.2091241-1.4583151.9440083-.0565823 1.8464942.3947559 2.3675 1.184.5210058.789244.5813784 1.7964888.1583759 2.6423151l-6.353 12.7c-.4471379.8982756-1.363591 1.4666546-2.367 1.468z"/><path id="Shape" d="m19.479 21.672c-.4354.0006708-.8211934-.2804552-.9539344-.6951279s.0180825-.8675752.3729344-1.1198721c1.6526916-1.1787807 2.7485606-2.984741 3.031-4.995.0688866-.4944028.4918213-.8622834.991-.862h8.08c.5522847 0 1 .4477153 1 1s-.4477153 1-1 1h-7.251c-.5270786 2.2148332-1.8382104 4.1639473-3.691 5.487-.1691291.12025-.3714796.1849043-.579.185z"/><path id="Shape" d="m6 49c-.55228475 0-1-.4477153-1-1 .00071423-2.6738988 1.33727036-5.1706547 3.562-6.654.45894863-.3073465 1.08015354-.1844486 1.3875.2745.3073465.4589486.1844486 1.0801535-.2745 1.3875-1.67032171 1.1120015-2.67418574 2.9853806-2.675 4.992 0 .5522847-.44771525 1-1 1z"/><path id="Shape" d="m48 40c-.5522847 0-1-.4477153-1-1 .0033061-2.7600532 2.2399468-4.9966939 5-5 .5522847 0 1 .4477153 1 1s-.4477153 1-1 1c-1.6568542 0-3 1.3431458-3 3 0 .5522847-.4477153 1-1 1z"/></g><path id="Shape" d="m27.738 45.984c.6177631 1.2355718 1.8805989 2.0160601 3.262 2.0160601s2.6442369-.7804883 3.262-2.0160601l6.352-12.7c.5991018-1.1671974.5251025-2.566239-.1937849-3.6637242s-1.9718622-1.7242607-3.2812133-1.6413612c-1.3093512.0828995-2.473271.8626968-3.0480018 2.0420854l-3.091 6.179-3.091-6.181c-.5825215-1.1652217-1.742432-1.9311595-3.0428044-2.0092919s-2.5436492.5434107-3.2615001 1.6305c-.7178508 1.0870893-.8012171 2.4745702-.2186955 3.6397919zm-4.653-14.857c.2259235-.6711631.8538379-1.1242102 1.562-1.127.177079.0004815.3529503.0291745.521.085.4148707.1377699.7575691.4354712.952.827l3.985 7.97c.187968.3152706.5279475.5083906.895.5083906s.707032-.19312.895-.5083906l3.985-7.971c.1943331-.3917688.5375985-.6892895.953-.826.8625098-.2849802 1.7931399.1807819 2.082 1.042.1392239.4145232.1068157.8675178-.09 1.258l-6.352 12.705c-.2790369.5578437-.8492603.9101961-1.473.9101961s-1.1939631-.3523524-1.473-.9101961l-6.353-12.706c-.1959916-.3903976-.2280291-.8428818-.089-1.257z" fill="#000"/><path id="Shape" d="m4.513 56.487c.013.013.03.017.043.029 2.86340699 2.8501665 6.9720377 4.0623706 10.924 3.223.4895704.1672496 1.0026802.255356 1.52.261h28c1.0598727-.0038951 2.0907331-.3465809 2.942-.978 2.7873502 1.4194695 6.1124285 1.2866108 8.7776393-.3507243 2.6652108-1.637335 4.2866644-4.5433091 4.2803607-7.6712757v-12c.0082342-2.740884-1.2367075-5.3352189-3.3800261-7.0436387-2.1433187-1.7084198-4.9499311-2.3435419-7.6199739-1.7243613v-8.072c-.0049005-2.3160963-1.4862391-4.3711418-3.682-5.108-1.3830689-.4606896-2.3165719-1.7542234-2.318-3.212v-2.024c1.1943509-.4222546 1.9947486-1.5492146 2-2.816v-6c0-1.65685425-1.3431458-3-3-3h-24c-1.6568542 0-3 1.34314575-3 3v6c.0052514 1.2667854.8056491 2.3937454 2 2.816v2.024c.0012659.7087339-.2224786 1.3995758-.639 1.973-.4159652.5787768-1.0033011 1.0121949-1.679 1.239-2.1984543.7331992-3.6814224 2.7905053-3.682 5.108v13.891c-4.64616072.383046-8.64861941 3.4255527-10.26079827 7.7998427-1.61217887 4.37429-.54150762 9.2865386 2.74479827 12.5931573.016.013.016.03.029.043zm2.163-.749 14.062-14.062c3.2566381 3.9727614 2.9703313 9.7675499-.6620594 13.3999406s-9.4271792 3.9186975-13.3999406.6620594zm45.324 2.262c-3.8641657-.0044086-6.9955914-3.1358343-7-7v-5h14v5c-.0044086 3.8641657-3.1358343 6.9955914-7 7zm7-19v5h-14v-5c.0000001-3.8659932 3.1340068-6.9999998 7-6.9999998s6.9999999 3.1340066 7 6.9999998zm-41-36c0-.55228475.4477153-1 1-1h24c.5522847 0 1 .44771525 1 1v6c0 .55228475-.4477153 1-1 1h-1v-3c0-.55228475-.4477153-1-1-1s-1 .44771525-1 1v3h-3v-3c0-.55228475-.4477153-1-1-1s-1 .44771525-1 1v3h-3v-3c0-.55228475-.4477153-1-1-1s-1 .44771525-1 1v3h-3v-3c0-.55228475-.4477153-1-1-1s-1 .44771525-1 1v3h-3v-3c0-.55228475-.4477153-1-1-1s-1 .44771525-1 1v3h-1c-.5522847 0-1-.44771525-1-1zm-1.684 15.949c2.1968989-.7362857 3.679239-2.7920065 3.684-5.109v-1.84h22v1.84c.0007445 2.3182932 1.4845994 4.3761147 3.684 5.109.67711.2277672 1.2652734.6630291 1.681 1.244.4143873.5719992.6367098 1.2606736.635 1.967v1.84h-24c-.5522847 0-1 .4477153-1 1s.4477153 1 1 1h24v4.95c-3.058791 1.5175814-4.9953479 4.6354379-5 8.05v12c.0001064 2.6042886 1.1312998 5.0801426 3.1 6.785-.3497814.1405495-.7230399.2135046-1.1.215h-25.381c2.1673838-1.4419642 3.8096159-3.5469401 4.681-6h13.7c.5522847 0 1-.4477153 1-1s-.4477153-1-1-1h-13.181c.6757998-3.8116235-.5568189-7.712675-3.3-10.444-.012-.013-.016-.03-.029-.043s-.03-.017-.043-.029c-2.0002653-1.9860838-4.6376958-3.2019155-7.447-3.433v-10.051h4c.5522847 0 1-.4477153 1-1s-.4477153-1-1-1h-4v-1.84c.0012611-1.4569782.9338774-2.7499966 2.316-3.211zm-3.316 19.051c2.3064711-.0018395 4.5419272.7977496 6.324 2.262l-14.062 14.062c-2.4482831-2.9886438-2.95426943-7.1208974-1.29941393-10.6119624 1.6548555-3.4910651 5.17398656-5.7153085 9.03741393-5.7120376z" fill="#000"/></g></g></svg>